<?xml version="1.0" standalone="no"?>
<!DOCTYPE svg PUBLIC "-//W3C//DTD SVG 20010904//EN"
 "http://www.w3.org/TR/2001/REC-SVG-20010904/DTD/svg10.dtd">
<svg version="1.0" xmlns="http://www.w3.org/2000/svg"
 width="700.000000pt" height="700.000000pt" viewBox="0 0 700.000000 700.000000"
 preserveAspectRatio="xMidYMid meet">
<metadata>
Created by potrace 1.14, written by Peter Selinger 2001-2017
</metadata>
<g transform="translate(0.000000,700.000000) scale(0.100000,-0.100000)"
fill="#000000" stroke="none">
<path d="M128 6993 c7 -3 16 -2 19 1 4 3 -2 6 -13 5 -11 0 -14 -3 -6 -6z"/>
<path d="M578 6993 c7 -3 16 -2 19 1 4 3 -2 6 -13 5 -11 0 -14 -3 -6 -6z"/>
<path d="M1808 6993 c7 -3 16 -2 19 1 4 3 -2 6 -13 5 -11 0 -14 -3 -6 -6z"/>
<path d="M2258 6993 c7 -3 16 -2 19 1 4 3 -2 6 -13 5 -11 0 -14 -3 -6 -6z"/>
<path d="M3488 6993 c7 -3 16 -2 19 1 4 3 -2 6 -13 5 -11 0 -14 -3 -6 -6z"/>
<path d="M3938 6993 c7 -3 16 -2 19 1 4 3 -2 6 -13 5 -11 0 -14 -3 -6 -6z"/>
<path d="M5168 6993 c7 -3 16 -2 19 1 4 3 -2 6 -13 5 -11 0 -14 -3 -6 -6z"/>
<path d="M5618 6993 c7 -3 16 -2 19 1 4 3 -2 6 -13 5 -11 0 -14 -3 -6 -6z"/>
<path d="M6848 6993 c7 -3 16 -2 19 1 4 3 -2 6 -13 5 -11 0 -14 -3 -6 -6z"/>
<path d="M6978 6993 c7 -3 16 -2 19 1 4 3 -2 6 -13 5 -11 0 -14 -3 -6 -6z"/>
<path d="M6992 6680 c0 -14 2 -19 5 -12 2 6 2 18 0 25 -3 6 -5 1 -5 -13z"/>
<path d="M3459 6516 c-79 -39 -31 -160 50 -126 41 16 54 45 41 85 -13 41 -55
59 -91 41z"/>
<path d="M3440 6310 c-46 -46 -18 -120 46 -120 23 0 38 7 54 27 52 66 -41 152
-100 93z"/>
<path d="M6991 6224 c0 -11 3 -14 6 -6 3 7 2 16 -1 19 -3 4 -6 -2 -5 -13z"/>
<path d="M3437 6113 c-29 -33 -23 -94 12 -112 24 -13 70 -7 89 12 21 22 20 72
-3 97 -23 25 -76 26 -98 3z"/>
<path d="M3440 5912 c-21 -21 -27 -35 -23 -55 12 -61 80 -79 120 -33 35 41 27
77 -24 104 -32 17 -41 15 -73 -16z"/>
<path d="M6991 5884 c0 -11 3 -14 6 -6 3 7 2 16 -1 19 -3 4 -6 -2 -5 -13z"/>
<path d="M1281 5714 c-28 -36 -26 -68 5 -93 34 -27 64 -27 92 -1 29 27 28 71
-1 98 -32 30 -71 28 -96 -4z"/>
<path d="M3440 5720 c-31 -31 -30 -75 2 -102 44 -39 111 -7 111 52 0 61 -71
92 -113 50z"/>
<path d="M5596 5717 c-33 -33 -33 -61 -1 -92 45 -46 115 -19 115 43 0 38 -19
60 -57 68 -26 5 -37 1 -57 -19z"/>
<path d="M6991 5684 c0 -11 3 -14 6 -6 3 7 2 16 -1 19 -3 4 -6 -2 -5 -13z"/>
<path d="M6992 5570 c0 -14 2 -19 5 -12 2 6 2 18 0 25 -3 6 -5 1 -5 -13z"/>
<path d="M1505 5540 c-62 -23 -63 -99 -4 -131 28 -14 78 6 89 37 21 54 -33
113 -85 94z"/>
<path d="M3447 5528 c-42 -38 -38 -95 9 -117 36 -16 72 -4 90 31 17 32 12 58
-14 80 -32 29 -58 30 -85 6z"/>
<path d="M5419 5536 c-55 -27 -55 -103 1 -126 62 -26 123 45 83 98 -25 33 -54
43 -84 28z"/>
<path d="M6991 5444 c0 -11 3 -14 6 -6 3 7 2 16 -1 19 -3 4 -6 -2 -5 -13z"/>
<path d="M1 5374 c0 -11 3 -14 6 -6 3 7 2 16 -1 19 -3 4 -6 -2 -5 -13z"/>
<path d="M1675 5325 c-30 -30 -31 -54 -4 -89 39 -49 119 -22 119 42 0 33 -8
45 -37 61 -33 17 -51 14 -78 -14z"/>
<path d="M1890 5343 c-66 -26 -43 -133 28 -133 33 0 45 8 61 37 17 33 14 51
-14 78 -24 24 -45 29 -75 18z"/>
<path d="M3452 5343 c-7 -3 -19 -18 -27 -33 -39 -75 62 -140 114 -74 45 58
-18 135 -87 107z"/>
<path d="M3636 5327 c-29 -29 -32 -47 -15 -80 16 -29 28 -37 62 -37 54 0 87
68 53 112 -7 10 -27 21 -44 24 -24 5 -36 1 -56 -19z"/>
<path d="M5205 5325 c-14 -13 -25 -35 -25 -49 0 -33 36 -66 72 -66 64 0 92 80
42 119 -35 27 -59 26 -89 -4z"/>
<path d="M6991 5334 c0 -11 3 -14 6 -6 3 7 2 16 -1 19 -3 4 -6 -2 -5 -13z"/>
<path d="M1670 5128 c-11 -12 -20 -32 -20 -45 0 -29 42 -73 68 -73 33 0 72 38
72 71 0 62 -78 92 -120 47z"/>
<path d="M1870 5130 c-20 -20 -26 -65 -12 -86 10 -15 47 -34 67 -34 9 0 27 12
42 26 20 20 24 32 19 56 -11 56 -76 78 -116 38z"/>
<path d="M2068 5133 c-23 -27 -28 -51 -18 -78 21 -54 98 -58 125 -5 25 48 -7
100 -60 100 -18 0 -38 -8 -47 -17z"/>
<path d="M3240 5130 c-29 -29 -26 -74 6 -99 15 -12 34 -21 44 -21 10 0 29 9
44 21 50 40 21 119 -44 119 -17 0 -39 -9 -50 -20z"/>
<path d="M3432 5125 c-17 -21 -19 -32 -11 -57 11 -40 18 -46 55 -54 63 -12
104 67 59 116 -26 29 -78 27 -103 -5z"/>
<path d="M3644 5142 c-15 -10 -34 -47 -34 -67 0 -24 46 -65 73 -65 31 0 67 39
67 73 0 49 -66 86 -106 59z"/>
<path d="M4810 5130 c-39 -39 -20 -102 35 -116 67 -17 109 70 59 120 -22 22
-70 20 -94 -4z"/>
<path d="M5000 5123 c-52 -67 42 -153 100 -91 21 23 24 31 20 63 -6 58 -82 76
-120 28z"/>
<path d="M5200 5130 c-29 -29 -26 -74 6 -99 15 -12 34 -21 44 -21 10 0 29 9
44 21 50 40 21 119 -44 119 -17 0 -39 -9 -50 -20z"/>
<path d="M6992 5000 c0 -14 2 -19 5 -12 2 6 2 18 0 25 -3 6 -5 1 -5 -13z"/>
<path d="M1877 4940 c-54 -43 -24 -124 44 -122 39 1 57 17 65 58 12 61 -59
103 -109 64z"/>
<path d="M2087 4953 c-9 -2 -24 -18 -33 -35 -39 -75 61 -139 115 -74 22 26 16
68 -13 93 -27 23 -35 25 -69 16z"/>
<path d="M2280 4947 c-35 -18 -48 -61 -30 -95 19 -32 56 -43 91 -26 46 23 52
72 14 109 -27 28 -39 30 -75 12z"/>
<path d="M3246 4936 c-41 -40 -33 -90 18 -111 68 -29 126 47 79 103 -30 35
-68 38 -97 8z"/>
<path d="M3453 4948 c-74 -36 -21 -154 57 -127 56 20 62 97 9 124 -32 17 -36
17 -66 3z"/>
<path d="M3653 4950 c-68 -27 -49 -130 25 -132 42 -1 72 26 72 67 0 49 -51 83
-97 65z"/>
<path d="M4633 4950 c-61 -25 -48 -126 16 -131 51 -4 81 21 81 67 0 23 -7 38
-26 53 -29 23 -38 24 -71 11z"/>
<path d="M4817 4940 c-20 -16 -27 -31 -27 -54 0 -64 74 -92 120 -46 59 59 -27
152 -93 100z"/>
<path d="M5019 4945 c-51 -28 -44 -104 11 -124 80 -27 131 93 54 128 -31 14
-33 14 -65 -4z"/>
<path d="M2065 4735 c-14 -13 -25 -33 -25 -45 0 -28 44 -70 73 -70 40 0 70 31
69 71 -2 64 -71 91 -117 44z"/>
<path d="M2262 4737 c-28 -30 -28 -68 1 -95 30 -28 71 -28 97 0 44 48 9 118
-59 118 -10 0 -27 -10 -39 -23z"/>
<path d="M2460 4742 c-30 -25 -30 -80 1 -104 48 -40 112 -9 112 54 0 58 -67
88 -113 50z"/>
<path d="M3242 4737 c-28 -30 -28 -68 1 -95 29 -28 67 -28 95 -2 31 29 29 73
-4 99 -35 27 -65 27 -92 -2z"/>
<path d="M3442 4743 c-32 -28 -33 -72 -2 -103 39 -39 105 -14 116 43 3 20 -2
34 -20 52 -29 29 -65 32 -94 8z"/>
<path d="M3631 4734 c-12 -15 -21 -35 -21 -46 0 -26 44 -68 73 -68 33 0 67 35
67 70 0 65 -79 94 -119 44z"/>
<path d="M4420 4742 c-45 -36 -16 -122 41 -122 43 0 83 42 75 78 -14 56 -73
79 -116 44z"/>
<path d="M4611 4734 c-12 -15 -21 -34 -21 -44 0 -10 9 -29 21 -44 40 -50 119
-21 119 44 0 65 -79 94 -119 44z"/>
<path d="M4810 4740 c-43 -43 -11 -120 49 -120 32 0 71 39 71 70 0 10 -9 29
-21 44 -25 32 -70 35 -99 6z"/>
<path d="M2290 4560 c-60 -15 -64 -101 -5 -129 25 -12 32 -12 54 0 74 42 33
150 -49 129z"/>
<path d="M2478 4556 c-53 -26 -53 -101 -1 -125 35 -16 77 2 93 39 24 57 -37
113 -92 86z"/>
<path d="M2672 4555 c-59 -25 -50 -113 14 -129 59 -15 110 69 69 114 -23 25
-47 29 -83 15z"/>
<path d="M2880 4562 c-30 -10 -50 -36 -50 -67 0 -36 22 -60 62 -70 21 -5 33
-1 52 19 28 27 31 41 17 79 -10 26 -55 47 -81 39z"/>
<path d="M3270 4560 c-14 -3 -31 -18 -40 -32 -31 -57 29 -124 87 -96 77 37 36
149 -47 128z"/>
<path d="M3459 4556 c-75 -37 -42 -144 40 -129 34 6 41 11 51 39 22 58 -37
117 -91 90z"/>
<path d="M3665 4562 c-11 -2 -28 -14 -37 -25 -54 -61 31 -147 95 -97 59 47 16
138 -58 122z"/>
<path d="M4049 4558 c-57 -19 -58 -102 -2 -127 56 -26 111 30 91 91 -11 32
-52 49 -89 36z"/>
<path d="M4239 4556 c-55 -27 -46 -109 15 -129 54 -18 105 49 77 101 -15 29
-63 43 -92 28z"/>
<path d="M4440 4557 c-54 -27 -58 -92 -9 -121 25 -15 35 -16 58 -6 33 13 54
52 45 84 -5 19 -24 35 -65 52 -3 2 -16 -3 -29 -9z"/>
<path d="M4633 4555 c-55 -23 -54 -104 3 -125 45 -18 94 16 94 65 0 53 -46 81
-97 60z"/>
<path d="M6992 4440 c0 -14 2 -19 5 -12 2 6 2 18 0 25 -3 6 -5 1 -5 -13z"/>
<path d="M2473 4360 c-22 -9 -40 -51 -34 -80 11 -54 85 -68 121 -23 25 32 20
69 -12 96 -22 19 -41 20 -75 7z"/>
<path d="M2653 4344 c-44 -44 -14 -113 50 -114 35 0 67 32 67 68 0 33 -8 45
-37 61 -33 17 -51 14 -80 -15z"/>
<path d="M2852 4350 c-26 -24 -29 -66 -6 -98 32 -47 124 -12 124 47 0 29 -43
71 -73 71 -13 0 -33 -9 -45 -20z"/>
<path d="M3049 4352 c-48 -40 -17 -122 46 -122 51 0 76 38 62 93 -12 45 -69
60 -108 29z"/>
<path d="M3259 4363 c-18 -4 -39 -44 -39 -73 0 -30 36 -60 70 -60 64 0 91 70
45 115 -23 24 -40 28 -76 18z"/>
<path d="M3453 4360 c-13 -5 -23 -11 -23 -12 0 -2 -4 -18 -9 -35 -19 -67 68
-114 114 -63 26 29 24 79 -4 102 -25 20 -44 22 -78 8z"/>
<path d="M3635 4345 c-31 -30 -32 -65 -2 -93 45 -43 117 -14 117 46 0 33 -8
45 -37 61 -33 17 -51 14 -78 -14z"/>
<path d="M3845 4358 c-27 -15 -35 -28 -35 -60 0 -61 78 -91 120 -46 27 29 25
64 -5 93 -26 27 -49 31 -80 13z"/>
<path d="M4029 4352 c-28 -23 -30 -73 -4 -102 36 -40 110 -18 115 35 4 34 1
44 -20 65 -25 25 -61 26 -91 2z"/>
<path d="M4226 4349 c-50 -40 -21 -119 44 -119 65 0 94 79 44 119 -15 12 -34
21 -44 21 -10 0 -29 -9 -44 -21z"/>
<path d="M4433 4360 c-22 -9 -40 -51 -34 -80 10 -53 85 -68 120 -24 25 32 21
71 -10 97 -23 19 -42 20 -76 7z"/>
<path d="M4624 4356 c-28 -20 -38 -60 -23 -89 16 -29 28 -37 62 -37 54 0 87
68 53 112 -19 25 -67 32 -92 14z"/>
<path d="M2457 4153 c-40 -46 -11 -123 47 -123 60 0 92 75 51 120 -23 25 -76
26 -98 3z"/>
<path d="M2652 4150 c-29 -28 -28 -65 4 -97 62 -62 149 22 98 95 -20 29 -72
30 -102 2z"/>
<path d="M2850 4150 c-46 -46 -4 -129 59 -115 58 12 80 77 39 115 -28 26 -72
26 -98 0z"/>
<path d="M3045 4150 c-26 -29 -24 -79 4 -102 55 -44 121 -1 111 72 -6 48 -81
68 -115 30z"/>
<path d="M3240 4150 c-29 -29 -26 -74 6 -99 15 -12 34 -21 44 -21 10 0 29 9
44 21 50 40 21 119 -44 119 -17 0 -39 -9 -50 -20z"/>
<path d="M3438 4153 c-23 -26 -26 -54 -11 -85 16 -33 48 -43 86 -29 69 26 46
131 -28 131 -18 0 -39 -8 -47 -17z"/>
<path d="M3630 4148 c-27 -29 -25 -64 5 -93 27 -28 45 -31 78 -14 29 15 37 28
37 59 0 65 -75 95 -120 48z"/>
<path d="M3826 4148 c-17 -24 -21 -65 -8 -84 10 -15 47 -34 67 -34 24 0 65 46
65 73 0 57 -92 91 -124 45z"/>
<path d="M4020 4143 c-25 -32 -20 -69 12 -95 66 -57 149 39 91 105 -25 27 -78
22 -103 -10z"/>
<path d="M4220 4148 c-28 -31 -26 -72 6 -97 15 -12 34 -21 44 -21 31 0 70 39
70 71 0 62 -78 92 -120 47z"/>
<path d="M4418 4153 c-24 -28 -27 -47 -13 -80 23 -55 104 -54 125 3 18 45 -16
94 -65 94 -18 0 -38 -8 -47 -17z"/>
<path d="M6991 4114 c0 -11 3 -14 6 -6 3 7 2 16 -1 19 -3 4 -6 -2 -5 -13z"/>
<path d="M2661 3963 c-42 -34 -35 -104 11 -119 53 -18 98 10 98 61 0 57 -67
92 -109 58z"/>
<path d="M2856 3959 c-66 -52 -4 -149 72 -112 54 26 52 102 -4 123 -34 13 -38
13 -68 -11z"/>
<path d="M3067 3973 c-24 -6 -49 -58 -41 -87 7 -27 56 -56 84 -49 25 7 50 35
55 63 3 15 -5 31 -25 51 -28 28 -37 31 -73 22z"/>
<path d="M3262 3970 c-54 -22 -54 -102 1 -125 69 -29 128 47 80 103 -22 25
-51 33 -81 22z"/>
<path d="M3444 3957 c-46 -40 -29 -103 34 -122 17 -5 29 1 52 24 43 42 37 81
-17 109 -30 17 -38 15 -69 -11z"/>
<path d="M3653 3970 c-51 -21 -54 -99 -5 -123 78 -38 143 59 76 112 -29 23
-38 24 -71 11z"/>
<path d="M3836 3959 c-45 -35 -31 -102 25 -121 8 -3 29 0 46 7 56 24 54 104
-3 125 -34 13 -38 13 -68 -11z"/>
<path d="M4048 3973 c-51 -13 -57 -98 -10 -124 59 -33 109 7 103 81 0 9 -14
23 -30 33 -30 17 -34 18 -63 10z"/>
<path d="M4225 3956 c-47 -48 -19 -120 46 -118 60 2 89 65 52 111 -28 33 -69
36 -98 7z"/>
<path d="M6992 3880 c0 -14 2 -19 5 -12 2 6 2 18 0 25 -3 6 -5 1 -5 -13z"/>
<path d="M1675 3755 c-30 -30 -31 -54 -4 -89 39 -50 119 -22 119 42 0 36 -33
72 -66 72 -14 0 -36 -11 -49 -25z"/>
<path d="M1870 3760 c-42 -42 -10 -120 50 -120 31 0 70 39 70 70 0 10 -9 29
-21 44 -25 32 -70 35 -99 6z"/>
<path d="M2064 3754 c-20 -19 -24 -31 -20 -52 21 -85 141 -78 138 9 -2 65 -71
91 -118 43z"/>
<path d="M2262 3760 c-31 -29 -29 -73 4 -99 35 -27 65 -27 92 2 28 30 28 68
-1 95 -29 28 -67 28 -95 2z"/>
<path d="M2462 3763 c-19 -17 -26 -38 -23 -70 2 -23 40 -53 66 -53 38 0 77 43
71 77 -6 33 -40 63 -71 63 -13 0 -32 -8 -43 -17z"/>
<path d="M2651 3754 c-12 -15 -21 -34 -21 -44 0 -30 39 -70 69 -70 37 0 71 34
71 70 0 65 -79 94 -119 44z"/>
<path d="M2850 3760 c-43 -43 -11 -120 49 -120 32 0 71 39 71 70 0 10 -9 29
-21 44 -25 32 -70 35 -99 6z"/>
<path d="M3044 3755 c-29 -29 -26 -70 7 -97 37 -31 82 -21 103 21 12 22 12 32
1 57 -21 51 -71 59 -111 19z"/>
<path d="M3242 3757 c-28 -30 -28 -68 1 -95 29 -28 67 -28 95 -2 29 27 28 71
-1 98 -30 28 -68 28 -95 -1z"/>
<path d="M3440 3762 c-48 -39 -16 -122 47 -122 37 0 76 45 69 78 -14 57 -73
79 -116 44z"/>
<path d="M3635 3755 c-30 -30 -31 -54 -4 -89 25 -32 66 -34 97 -6 28 26 28 69
2 98 -27 29 -65 28 -95 -3z"/>
<path d="M3830 3760 c-43 -43 -11 -120 49 -120 32 0 71 39 71 70 0 10 -9 29
-21 44 -25 32 -70 35 -99 6z"/>
<path d="M4024 3755 c-61 -61 29 -152 96 -97 30 25 30 80 -1 104 -30 25 -66
22 -95 -7z"/>
<path d="M4222 3757 c-30 -32 -28 -71 4 -96 34 -27 68 -27 94 1 27 29 25 69
-3 96 -30 28 -68 28 -95 -1z"/>
<path d="M4423 3765 c-27 -19 -33 -52 -16 -87 36 -75 153 -22 123 56 -16 44
-68 59 -107 31z"/>
<path d="M4615 3760 c-26 -29 -28 -71 -3 -97 43 -46 118 -16 118 47 0 60 -76
93 -115 50z"/>
<path d="M4810 3760 c-43 -43 -11 -120 49 -120 32 0 71 39 71 70 0 10 -9 29
-21 44 -25 32 -70 35 -99 6z"/>
<path d="M5004 3755 c-29 -29 -26 -70 7 -97 69 -57 152 39 89 102 -27 27 -66
25 -96 -5z"/>
<path d="M5202 3757 c-28 -30 -28 -68 1 -95 29 -28 67 -28 95 -2 29 27 28 71
-1 98 -30 28 -68 28 -95 -1z"/>
<path d="M1 3694 c0 -11 3 -14 6 -6 3 7 2 16 -1 19 -3 4 -6 -2 -5 -13z"/>
<path d="M6991 3644 c0 -11 3 -14 6 -6 3 7 2 16 -1 19 -3 4 -6 -2 -5 -13z"/>
<path d="M519 3576 c-56 -28 -55 -105 2 -125 40 -14 73 0 89 39 11 28 11 34
-6 57 -26 34 -55 44 -85 29z"/>
<path d="M712 3575 c-59 -26 -49 -115 15 -128 83 -17 116 114 34 136 -10 2
-32 -1 -49 -8z"/>
<path d="M920 3582 c-74 -23 -63 -129 14 -137 28 -3 76 34 76 59 0 49 -49 91
-90 78z"/>
<path d="M1103 3575 c-53 -22 -54 -94 -1 -121 39 -20 83 -4 96 34 22 62 -34
113 -95 87z"/>
<path d="M1310 3580 c-60 -15 -64 -101 -6 -129 52 -25 107 24 92 83 -8 31 -52
55 -86 46z"/>
<path d="M1499 3576 c-53 -26 -55 -101 -3 -125 58 -26 118 31 94 89 -15 36
-58 53 -91 36z"/>
<path d="M1693 3575 c-55 -23 -54 -104 3 -125 45 -18 94 16 94 65 0 53 -46 81
-97 60z"/>
<path d="M1875 3569 c-61 -49 -4 -147 69 -119 33 12 49 44 41 81 -11 49 -69
69 -110 38z"/>
<path d="M2093 3579 c-58 -21 -65 -97 -11 -125 33 -17 57 -12 83 16 46 51 -8
133 -72 109z"/>
<path d="M2279 3572 c-45 -23 -52 -70 -15 -107 32 -32 60 -32 91 0 39 38 32
86 -15 110 -24 12 -31 12 -61 -3z"/>
<path d="M2485 3580 c-26 -10 -42 -29 -46 -55 -12 -84 99 -112 132 -34 10 26
9 34 -7 56 -24 31 -52 43 -79 33z"/>
<path d="M2685 3582 c-11 -2 -28 -14 -37 -25 -54 -61 32 -147 96 -96 58 46 14
137 -59 121z"/>
<path d="M2875 3580 c-53 -20 -60 -88 -14 -123 34 -24 77 -13 99 26 29 52 -29
118 -85 97z"/>
<path d="M3069 3578 c-15 -5 -32 -22 -39 -38 -10 -24 -9 -34 6 -59 21 -35 44
-43 84 -29 44 15 56 73 23 110 -19 22 -42 27 -74 16z"/>
<path d="M3257 3574 c-50 -27 -45 -104 8 -124 62 -24 117 40 85 100 -15 28
-61 40 -93 24z"/>
<path d="M3459 3576 c-52 -26 -55 -83 -7 -119 53 -39 120 17 97 81 -13 38 -55
56 -90 38z"/>
<path d="M3870 3582 c-63 -10 -83 -83 -33 -122 32 -25 69 -20 96 12 39 46 -2
119 -63 110z"/>
<path d="M4049 3578 c-58 -20 -58 -104 1 -128 65 -27 123 57 76 109 -22 24
-45 30 -77 19z"/>
<path d="M4239 3576 c-13 -6 -28 -24 -34 -39 -20 -60 49 -117 100 -83 73 48
11 161 -66 122z"/>
<path d="M4439 3576 c-55 -27 -55 -103 0 -126 38 -15 75 1 91 40 11 28 11 34
-6 57 -26 34 -55 44 -85 29z"/>
<path d="M4632 3574 c-59 -24 -51 -106 12 -127 59 -20 113 66 71 113 -23 25
-47 29 -83 14z"/>
<path d="M4835 3580 c-32 -12 -47 -36 -43 -71 4 -45 45 -75 84 -62 37 12 60
57 48 91 -11 30 -60 53 -89 42z"/>
<path d="M5033 3579 c-12 -4 -29 -19 -39 -34 -13 -20 -14 -30 -5 -53 6 -15 21
-33 32 -40 30 -19 85 1 97 36 20 57 -31 111 -85 91z"/>
<path d="M5223 3575 c-50 -21 -58 -71 -18 -111 59 -59 149 24 100 93 -19 27
-46 33 -82 18z"/>
<path d="M5419 3576 c-55 -27 -55 -103 0 -126 38 -15 75 1 91 40 11 28 11 34
-6 57 -26 34 -55 44 -85 29z"/>
<path d="M5825 3582 c-73 -15 -74 -110 -2 -135 46 -17 96 36 83 87 -7 29 -51
55 -81 48z"/>
<path d="M6014 3582 c-28 -4 -56 -55 -48 -87 7 -29 56 -59 83 -50 89 28 57
152 -35 137z"/>
<path d="M6203 3575 c-57 -24 -54 -104 4 -126 78 -30 130 86 55 125 -23 12
-32 12 -59 1z"/>
<path d="M6415 3582 c-69 -15 -79 -108 -14 -131 40 -14 73 0 89 38 10 26 10
35 -4 56 -20 30 -44 43 -71 37z"/>
<path d="M3630 3560 c-59 -59 27 -152 93 -100 33 26 37 78 9 103 -25 23 -78
21 -102 -3z"/>
<path d="M5588 3558 c-52 -64 31 -148 96 -97 32 25 36 77 8 102 -27 25 -83 22
-104 -5z"/>
<path d="M6991 3424 c0 -11 3 -14 6 -6 3 7 2 16 -1 19 -3 4 -6 -2 -5 -13z"/>
<path d="M1497 3383 c-9 -2 -24 -17 -32 -33 -39 -75 62 -140 114 -74 45 57 -8
126 -82 107z"/>
<path d="M1675 3365 c-28 -27 -30 -42 -13 -80 13 -30 50 -42 87 -29 50 18 54
100 6 122 -38 17 -53 15 -80 -13z"/>
<path d="M1890 3383 c-66 -26 -43 -133 28 -133 33 0 45 8 61 37 17 33 14 51
-14 78 -24 24 -45 29 -75 18z"/>
<path d="M2072 3373 c-32 -27 -37 -64 -12 -96 38 -48 113 -30 121 28 5 33 -11
66 -38 76 -35 13 -48 11 -71 -8z"/>
<path d="M2266 3369 c-50 -40 -21 -119 44 -119 65 0 94 79 44 119 -15 12 -34
21 -44 21 -10 0 -29 -9 -44 -21z"/>
<path d="M2461 3371 c-28 -24 -31 -74 -6 -101 24 -26 76 -26 100 0 59 65 -28
158 -94 101z"/>
<path d="M2655 3365 c-22 -21 -26 -32 -21 -57 11 -56 76 -78 116 -38 40 40 18
105 -38 116 -25 5 -36 1 -57 -21z"/>
<path d="M2870 3383 c-42 -17 -53 -80 -20 -113 41 -41 120 -10 120 47 0 46
-56 83 -100 66z"/>
<path d="M3052 3373 c-32 -27 -37 -64 -12 -96 47 -60 140 -16 119 56 -16 56
-66 74 -107 40z"/>
<path d="M3246 3369 c-50 -40 -21 -119 44 -119 65 0 94 79 44 119 -15 12 -34
21 -44 21 -10 0 -29 -9 -44 -21z"/>
<path d="M3452 3383 c-7 -3 -19 -18 -27 -33 -39 -75 62 -139 115 -73 45 58
-18 134 -88 106z"/>
<path d="M3636 3367 c-29 -29 -32 -47 -15 -80 16 -29 28 -37 62 -37 54 0 87
68 53 112 -7 10 -27 21 -44 24 -24 5 -36 1 -56 -19z"/>
<path d="M3850 3383 c-42 -17 -53 -80 -20 -113 40 -40 105 -18 116 38 5 24 1
36 -19 56 -25 25 -47 30 -77 19z"/>
<path d="M4032 3373 c-32 -27 -37 -64 -12 -96 47 -60 140 -16 119 56 -16 56
-66 74 -107 40z"/>
<path d="M4226 3369 c-50 -40 -21 -119 44 -119 36 0 70 34 70 71 0 30 -40 69
-70 69 -10 0 -29 -9 -44 -21z"/>
<path d="M4420 3370 c-46 -46 -18 -120 46 -120 23 0 38 7 54 27 52 66 -41 152
-100 93z"/>
<path d="M4616 3367 c-29 -29 -32 -47 -15 -80 16 -29 28 -37 62 -37 54 0 87
68 53 112 -7 10 -27 21 -44 24 -24 5 -36 1 -56 -19z"/>
<path d="M4825 3378 c-28 -16 -35 -28 -35 -65 0 -37 29 -63 70 -63 31 0 44 8
59 37 17 33 14 51 -14 78 -26 27 -49 31 -80 13z"/>
<path d="M5009 3372 c-28 -23 -30 -73 -4 -102 49 -54 147 9 113 73 -25 49 -70
60 -109 29z"/>
<path d="M5205 3365 c-14 -13 -25 -36 -25 -50 0 -58 79 -87 120 -43 27 29 25
64 -5 93 -31 32 -59 32 -90 0z"/>
<path d="M5400 3370 c-46 -46 -18 -120 46 -120 23 0 38 7 54 27 52 66 -41 152
-100 93z"/>
<path d="M2664 3182 c-15 -10 -34 -47 -34 -67 0 -9 12 -27 26 -42 62 -62 149
22 98 95 -15 22 -66 30 -90 14z"/>
<path d="M2850 3170 c-11 -11 -20 -33 -20 -49 0 -75 104 -95 130 -25 15 37 12
51 -12 74 -28 26 -72 26 -98 0z"/>
<path d="M3048 3173 c-23 -27 -28 -51 -18 -77 20 -54 93 -58 123 -7 28 47 -4
101 -58 101 -18 0 -38 -8 -47 -17z"/>
<path d="M3240 3170 c-27 -27 -25 -66 5 -95 30 -30 54 -31 89 -4 50 40 21 119
-44 119 -17 0 -39 -9 -50 -20z"/>
<path d="M3439 3173 c-26 -30 -30 -53 -14 -83 29 -56 114 -46 129 16 16 60
-76 113 -115 67z"/>
<path d="M3638 3176 c-10 -7 -21 -27 -24 -44 -5 -24 -1 -36 19 -56 29 -29 47
-32 80 -15 30 16 37 28 37 66 0 53 -68 83 -112 49z"/>
<path d="M3830 3170 c-39 -39 -20 -102 35 -116 67 -17 109 70 59 120 -22 22
-70 20 -94 -4z"/>
<path d="M4021 3164 c-24 -31 -20 -70 11 -96 43 -38 109 -7 110 51 2 68 -79
98 -121 45z"/>
<path d="M4220 3170 c-11 -11 -20 -31 -20 -45 0 -31 41 -75 70 -75 29 0 70 44
70 74 0 56 -79 87 -120 46z"/>
<path d="M6991 3084 c0 -11 3 -14 6 -6 3 7 2 16 -1 19 -3 4 -6 -2 -5 -13z"/>
<path d="M2478 2989 c-68 -25 -45 -131 28 -131 60 0 90 73 47 117 -28 27 -34
28 -75 14z"/>
<path d="M2657 2976 c-32 -30 -35 -68 -7 -96 46 -46 120 -18 120 45 0 35 -21
60 -60 70 -19 5 -33 0 -53 -19z"/>
<path d="M2856 2979 c-52 -41 -23 -123 44 -121 83 2 91 123 9 137 -17 3 -36
-2 -53 -16z"/>
<path d="M3064 2988 c-54 -26 -50 -107 6 -126 80 -28 131 91 54 127 -29 13
-32 13 -60 -1z"/>
<path d="M3244 2975 c-46 -46 -19 -115 45 -117 24 -1 40 5 53 22 55 68 -36
157 -98 95z"/>
<path d="M3453 2988 c-12 -6 -27 -24 -33 -41 -19 -55 35 -105 91 -85 55 19 60
97 8 123 -32 17 -36 17 -66 3z"/>
<path d="M3653 2990 c-51 -20 -54 -99 -5 -124 51 -26 102 4 102 59 0 49 -51
83 -97 65z"/>
<path d="M3860 2993 c-69 -25 -67 -112 3 -136 29 -11 74 19 82 53 7 31 -15 80
-34 80 -5 0 -15 2 -23 4 -7 3 -20 2 -28 -1z"/>
<path d="M4039 2985 c-51 -28 -44 -104 11 -124 80 -27 131 93 54 128 -31 14
-33 14 -65 -4z"/>
<path d="M4224 2975 c-46 -46 -19 -115 45 -117 24 -1 40 5 53 22 55 68 -36
157 -98 95z"/>
<path d="M4438 2989 c-30 -11 -49 -54 -38 -84 31 -84 156 -45 134 41 -5 19
-51 57 -66 53 -2 0 -15 -5 -30 -10z"/>
<path d="M6991 2884 c0 -11 3 -14 6 -6 3 7 2 16 -1 19 -3 4 -6 -2 -5 -13z"/>
<path d="M2461 2782 c-31 -24 -31 -79 -1 -104 31 -25 66 -23 96 8 61 60 -29
150 -95 96z"/>
<path d="M2651 2774 c-12 -15 -21 -34 -21 -44 0 -10 9 -29 21 -44 40 -50 119
-21 119 44 0 65 -79 94 -119 44z"/>
<path d="M2850 2780 c-23 -23 -26 -68 -7 -93 6 -9 26 -20 44 -23 26 -5 37 -1
57 19 31 32 33 56 5 91 -25 32 -70 35 -99 6z"/>
<path d="M3052 2783 c-35 -30 -38 -68 -8 -97 30 -31 69 -33 96 -6 44 44 16
120 -45 120 -13 0 -32 -8 -43 -17z"/>
<path d="M3242 2777 c-28 -30 -28 -68 1 -95 30 -28 68 -28 95 1 28 30 28 68
-1 95 -30 28 -68 28 -95 -1z"/>
<path d="M3442 2783 c-47 -41 -18 -123 43 -123 38 0 77 43 71 77 -6 33 -40 63
-71 63 -13 0 -32 -8 -43 -17z"/>
<path d="M3631 2774 c-12 -15 -21 -34 -21 -44 0 -10 9 -29 21 -44 40 -50 119
-21 119 44 0 65 -79 94 -119 44z"/>
<path d="M3832 2780 c-44 -41 -15 -120 43 -120 30 0 75 41 75 68 0 11 -9 31
-21 46 -25 32 -66 34 -97 6z"/>
<path d="M4037 2789 c-44 -26 -40 -99 7 -120 52 -24 108 21 98 78 -7 43 -64
66 -105 42z"/>
<path d="M4222 2777 c-28 -30 -28 -68 1 -95 29 -28 67 -28 95 -2 29 27 28 71
-1 98 -30 28 -68 28 -95 -1z"/>
<path d="M4422 2783 c-32 -28 -33 -72 -2 -103 38 -38 102 -15 116 42 4 21 0
33 -20 52 -29 30 -65 33 -94 9z"/>
<path d="M4611 2774 c-12 -15 -21 -34 -21 -44 0 -10 9 -29 21 -44 40 -50 119
-21 119 44 0 65 -79 94 -119 44z"/>
<path d="M6992 2770 c0 -14 2 -19 5 -12 2 6 2 18 0 25 -3 6 -5 1 -5 -13z"/>
<path d="M6991 2644 c0 -11 3 -14 6 -6 3 7 2 16 -1 19 -3 4 -6 -2 -5 -13z"/>
<path d="M2279 2596 c-13 -6 -28 -24 -34 -39 -20 -60 49 -117 100 -83 73 48
11 161 -66 122z"/>
<path d="M2479 2596 c-53 -26 -55 -101 -3 -125 58 -26 118 31 94 89 -15 36
-58 53 -91 36z"/>
<path d="M2685 2602 c-11 -2 -28 -14 -37 -25 -54 -61 31 -147 95 -97 59 47 16
138 -58 122z"/>
<path d="M2880 2602 c-51 -16 -68 -83 -30 -117 59 -53 148 15 110 85 -11 20
-58 39 -80 32z"/>
<path d="M3262 2595 c-58 -25 -52 -107 10 -129 55 -19 107 49 77 102 -19 34
-48 43 -87 27z"/>
<path d="M3459 2596 c-55 -27 -55 -103 1 -126 62 -26 123 45 83 98 -25 33 -54
43 -84 28z"/>
<path d="M3647 2592 c-53 -32 -43 -105 17 -125 22 -7 33 -5 55 10 72 54 4 162
-72 115z"/>
<path d="M4044 2598 c-50 -23 -51 -99 -2 -124 74 -38 139 61 75 114 -21 18
-48 21 -73 10z"/>
<path d="M4253 2602 c-47 -7 -68 -72 -35 -111 27 -33 68 -36 97 -7 54 54 13
130 -62 118z"/>
<path d="M4439 2596 c-34 -16 -49 -52 -38 -86 20 -56 97 -62 124 -10 31 60
-28 125 -86 96z"/>
<path d="M4633 2595 c-55 -23 -54 -104 3 -125 45 -18 94 16 94 65 0 53 -46 81
-97 60z"/>
<path d="M2069 2392 c-28 -23 -30 -73 -4 -102 36 -40 110 -18 115 35 4 34 1
44 -22 65 -27 25 -59 26 -89 2z"/>
<path d="M2266 2389 c-33 -26 -35 -70 -4 -99 45 -42 118 -12 118 49 0 32 -39
71 -70 71 -10 0 -29 -9 -44 -21z"/>
<path d="M2472 2398 c-22 -11 -39 -49 -33 -78 11 -54 85 -68 121 -23 25 32 20
69 -12 96 -23 19 -43 21 -76 5z"/>
<path d="M2653 2384 c-44 -44 -14 -113 50 -114 35 0 67 32 67 68 0 33 -8 45
-37 61 -33 17 -51 14 -80 -15z"/>
<path d="M3246 2389 c-50 -40 -21 -119 44 -119 34 0 70 33 70 66 0 31 -37 74
-64 74 -13 0 -35 -9 -50 -21z"/>
<path d="M3453 2400 c-22 -9 -40 -51 -34 -80 10 -53 85 -68 120 -24 24 31 20
70 -11 97 -22 19 -41 20 -75 7z"/>
<path d="M3635 2385 c-22 -21 -26 -32 -21 -57 11 -56 76 -78 116 -38 40 40 18
105 -38 116 -25 5 -36 1 -57 -21z"/>
<path d="M4420 2390 c-46 -46 -18 -120 46 -120 23 0 38 7 54 27 52 66 -41 152
-100 93z"/>
<path d="M4633 2400 c-69 -28 -44 -130 31 -130 61 0 89 72 46 118 -22 23 -41
26 -77 12z"/>
<path d="M4830 2403 c-66 -26 -43 -133 28 -133 33 0 45 8 61 37 17 33 14 51
-14 78 -24 24 -45 29 -75 18z"/>
<path d="M6992 2200 c0 -14 2 -19 5 -12 2 6 2 18 0 25 -3 6 -5 1 -5 -13z"/>
<path d="M1870 2190 c-40 -40 -18 -105 38 -116 25 -5 36 -1 57 21 22 21 26 32
21 57 -11 56 -76 78 -116 38z"/>
<path d="M2062 2187 c-45 -48 2 -127 67 -112 34 7 39 12 51 55 19 67 -69 109
-118 57z"/>
<path d="M2260 2190 c-29 -29 -26 -74 6 -99 15 -12 34 -21 44 -21 10 0 29 9
44 21 50 40 21 119 -44 119 -17 0 -39 -9 -50 -20z"/>
<path d="M3240 2190 c-29 -29 -26 -74 6 -99 15 -12 34 -21 44 -21 30 0 70 39
70 69 0 61 -77 94 -120 51z"/>
<path d="M3436 2191 c-10 -11 -19 -28 -20 -38 -4 -19 19 -72 32 -74 66 -11 99
5 107 52 11 62 -77 107 -119 60z"/>
<path d="M3638 2196 c-10 -7 -21 -27 -24 -44 -5 -25 -1 -36 21 -57 21 -22 32
-26 57 -21 37 7 57 31 58 69 0 54 -68 87 -112 53z"/>
<path d="M4618 2196 c-10 -7 -21 -27 -24 -44 -5 -25 -1 -36 21 -57 47 -48 114
-17 115 52 0 53 -68 83 -112 49z"/>
<path d="M4810 2190 c-20 -20 -26 -65 -12 -86 10 -15 47 -34 67 -34 9 0 27 12
42 26 20 20 24 32 19 56 -11 56 -76 78 -116 38z"/>
<path d="M5000 2183 c-25 -32 -20 -69 12 -95 66 -57 149 39 91 105 -25 27 -78
22 -103 -10z"/>
<path d="M1 2014 c0 -11 3 -14 6 -6 3 7 2 16 -1 19 -3 4 -6 -2 -5 -13z"/>
<path d="M1900 2013 c-67 -25 -67 -112 1 -135 29 -11 77 18 84 52 7 31 -14 80
-34 80 -5 0 -15 2 -23 4 -7 3 -20 2 -28 -1z"/>
<path d="M2079 2005 c-74 -40 -13 -159 62 -121 53 26 55 101 3 125 -31 14 -33
14 -65 -4z"/>
<path d="M3246 1996 c-51 -50 -21 -118 51 -118 53 0 81 68 46 110 -30 35 -68
38 -97 8z"/>
<path d="M3453 2008 c-25 -12 -38 -42 -34 -73 6 -43 49 -68 92 -53 54 19 59
97 8 123 -32 17 -36 17 -66 3z"/>
<path d="M3652 2010 c-53 -22 -54 -102 0 -125 52 -21 98 7 98 60 0 50 -51 83
-98 65z"/>
<path d="M4816 1999 c-45 -35 -31 -102 25 -121 8 -3 29 0 46 7 56 24 54 104
-3 125 -34 13 -38 13 -68 -11z"/>
<path d="M5022 2010 c-12 -5 -27 -22 -33 -37 -22 -58 38 -116 92 -89 57 28 55
105 -3 125 -17 6 -31 11 -32 10 -1 0 -11 -4 -24 -9z"/>
<path d="M5205 1995 c-29 -28 -32 -65 -7 -93 40 -47 122 -18 122 43 0 31 -41
75 -70 75 -11 0 -32 -11 -45 -25z"/>
<path d="M1671 1794 c-27 -35 -26 -59 4 -89 65 -66 158 25 95 93 -29 31 -73
29 -99 -4z"/>
<path d="M1870 1800 c-41 -41 -10 -120 46 -120 29 0 74 41 74 68 0 59 -79 93
-120 52z"/>
<path d="M3242 1800 c-45 -42 -13 -120 48 -120 30 0 70 37 70 64 0 21 -19 58
-34 68 -21 14 -62 8 -84 -12z"/>
<path d="M3440 1800 c-45 -45 -16 -120 47 -120 37 0 76 45 69 78 -14 57 -78
80 -116 42z"/>
<path d="M3631 1794 c-27 -35 -26 -59 4 -89 45 -46 115 -19 115 45 0 65 -79
94 -119 44z"/>
<path d="M5012 1803 c-35 -30 -38 -68 -8 -97 54 -54 126 -15 117 64 -3 22 -40
50 -66 50 -13 0 -32 -8 -43 -17z"/>
<path d="M5202 1797 c-12 -13 -22 -35 -22 -48 0 -32 38 -69 71 -69 31 0 69 34
69 61 0 23 -18 61 -34 71 -22 15 -63 7 -84 -15z"/>
<path d="M6991 1744 c0 -11 3 -14 6 -6 3 7 2 16 -1 19 -3 4 -6 -2 -5 -13z"/>
<path d="M1499 1616 c-55 -27 -55 -103 1 -126 62 -26 123 45 83 98 -25 33 -54
43 -84 28z"/>
<path d="M3465 1620 c-60 -22 -64 -106 -6 -130 59 -24 116 36 90 94 -14 29
-55 47 -84 36z"/>
<path d="M3660 1620 c-25 -6 -50 -41 -50 -71 0 -24 31 -57 60 -64 38 -9 80 27
80 69 0 49 -41 79 -90 66z"/>
<path d="M5419 1616 c-55 -27 -55 -103 0 -126 38 -15 75 1 91 40 11 28 11 34
-6 57 -26 34 -55 44 -85 29z"/>
<path d="M1286 1409 c-50 -40 -21 -119 44 -119 36 0 70 34 70 71 0 30 -40 69
-70 69 -10 0 -29 -9 -44 -21z"/>
<path d="M3459 1423 c-15 -4 -31 -27 -43 -65 -9 -29 31 -68 69 -68 65 0 94 80
44 123 -21 17 -37 19 -70 10z"/>
<path d="M5593 1404 c-44 -44 -14 -113 50 -114 35 0 67 32 67 68 0 33 -8 45
-37 61 -33 17 -51 14 -80 -15z"/>
<path d="M6991 1404 c0 -11 3 -14 6 -6 3 7 2 16 -1 19 -3 4 -6 -2 -5 -13z"/>
<path d="M3432 1205 c-17 -21 -19 -32 -11 -57 11 -40 18 -46 55 -54 61 -12
103 59 64 109 -29 37 -80 37 -108 2z"/>
<path d="M6991 1204 c0 -11 3 -14 6 -6 3 7 2 16 -1 19 -3 4 -6 -2 -5 -13z"/>
<path d="M6992 1090 c0 -14 2 -19 5 -12 2 6 2 18 0 25 -3 6 -5 1 -5 -13z"/>
<path d="M3453 1028 c-74 -36 -21 -154 57 -127 57 20 60 102 4 128 -29 13 -32
13 -61 -1z"/>
<path d="M6991 964 c0 -11 3 -14 6 -6 3 7 2 16 -1 19 -3 4 -6 -2 -5 -13z"/>
<path d="M6991 854 c0 -11 3 -14 6 -6 3 7 2 16 -1 19 -3 4 -6 -2 -5 -13z"/>
<path d="M3442 823 c-47 -41 -18 -123 43 -123 31 0 75 41 75 70 0 28 -44 70
-73 70 -14 0 -34 -8 -45 -17z"/>
<path d="M3475 642 c-68 -15 -79 -106 -15 -132 60 -25 120 42 85 96 -19 29
-44 42 -70 36z"/>
<path d="M6992 530 c0 -14 2 -19 5 -12 2 6 2 18 0 25 -3 6 -5 1 -5 -13z"/>
<path d="M6991 404 c0 -11 3 -14 6 -6 3 7 2 16 -1 19 -3 4 -6 -2 -5 -13z"/>
<path d="M1 334 c0 -11 3 -14 6 -6 3 7 2 16 -1 19 -3 4 -6 -2 -5 -13z"/>
<path d="M6991 294 c0 -11 3 -14 6 -6 3 7 2 16 -1 19 -3 4 -6 -2 -5 -13z"/>
<path d="M108 3 c7 -3 16 -2 19 1 4 3 -2 6 -13 5 -11 0 -14 -3 -6 -6z"/>
<path d="M218 3 c6 -2 18 -2 25 0 6 3 1 5 -13 5 -14 0 -19 -2 -12 -5z"/>
<path d="M348 3 c7 -3 16 -2 19 1 4 3 -2 6 -13 5 -11 0 -14 -3 -6 -6z"/>
<path d="M688 3 c7 -3 16 -2 19 1 4 3 -2 6 -13 5 -11 0 -14 -3 -6 -6z"/>
<path d="M1028 3 c7 -3 16 -2 19 1 4 3 -2 6 -13 5 -11 0 -14 -3 -6 -6z"/>
<path d="M1348 3 c6 -2 18 -2 25 0 6 3 1 5 -13 5 -14 0 -19 -2 -12 -5z"/>
<path d="M1478 3 c7 -3 16 -2 19 1 4 3 -2 6 -13 5 -11 0 -14 -3 -6 -6z"/>
<path d="M1588 3 c7 -3 16 -2 19 1 4 3 -2 6 -13 5 -11 0 -14 -3 -6 -6z"/>
<path d="M1908 3 c6 -2 18 -2 25 0 6 3 1 5 -13 5 -14 0 -19 -2 -12 -5z"/>
<path d="M2148 3 c7 -3 16 -2 19 1 4 3 -2 6 -13 5 -11 0 -14 -3 -6 -6z"/>
<path d="M2348 3 c7 -3 16 -2 19 1 4 3 -2 6 -13 5 -11 0 -14 -3 -6 -6z"/>
<path d="M2458 3 c6 -2 18 -2 25 0 6 3 1 5 -13 5 -14 0 -19 -2 -12 -5z"/>
<path d="M2588 3 c7 -3 16 -2 19 1 4 3 -2 6 -13 5 -11 0 -14 -3 -6 -6z"/>
<path d="M3038 3 c7 -3 16 -2 19 1 4 3 -2 6 -13 5 -11 0 -14 -3 -6 -6z"/>
<path d="M3268 3 c7 -3 16 -2 19 1 4 3 -2 6 -13 5 -11 0 -14 -3 -6 -6z"/>
<path d="M3588 3 c6 -2 18 -2 25 0 6 3 1 5 -13 5 -14 0 -19 -2 -12 -5z"/>
<path d="M3718 3 c7 -3 16 -2 19 1 4 3 -2 6 -13 5 -11 0 -14 -3 -6 -6z"/>
<path d="M3828 3 c7 -3 16 -2 19 1 4 3 -2 6 -13 5 -11 0 -14 -3 -6 -6z"/>
<path d="M4158 3 c7 -3 16 -2 19 1 4 3 -2 6 -13 5 -11 0 -14 -3 -6 -6z"/>
<path d="M4388 3 c7 -3 16 -2 19 1 4 3 -2 6 -13 5 -11 0 -14 -3 -6 -6z"/>
<path d="M4588 3 c7 -3 16 -2 19 1 4 3 -2 6 -13 5 -11 0 -14 -3 -6 -6z"/>
<path d="M4698 3 c6 -2 18 -2 25 0 6 3 1 5 -13 5 -14 0 -19 -2 -12 -5z"/>
<path d="M4828 3 c7 -3 16 -2 19 1 4 3 -2 6 -13 5 -11 0 -14 -3 -6 -6z"/>
<path d="M5168 3 c7 -3 16 -2 19 1 4 3 -2 6 -13 5 -11 0 -14 -3 -6 -6z"/>
<path d="M5508 3 c7 -3 16 -2 19 1 4 3 -2 6 -13 5 -11 0 -14 -3 -6 -6z"/>
<path d="M5708 3 c7 -3 16 -2 19 1 4 3 -2 6 -13 5 -11 0 -14 -3 -6 -6z"/>
<path d="M5838 3 c7 -3 16 -2 19 1 4 3 -2 6 -13 5 -11 0 -14 -3 -6 -6z"/>
<path d="M6068 3 c7 -3 16 -2 19 1 4 3 -2 6 -13 5 -11 0 -14 -3 -6 -6z"/>
<path d="M6158 3 c7 -3 16 -2 19 1 4 3 -2 6 -13 5 -11 0 -14 -3 -6 -6z"/>
<path d="M6288 3 c7 -3 16 -2 19 1 4 3 -2 6 -13 5 -11 0 -14 -3 -6 -6z"/>
<path d="M6518 3 c7 -3 16 -2 19 1 4 3 -2 6 -13 5 -11 0 -14 -3 -6 -6z"/>
<path d="M6628 3 c7 -3 16 -2 19 1 4 3 -2 6 -13 5 -11 0 -14 -3 -6 -6z"/>
<path d="M6948 3 c6 -2 18 -2 25 0 6 3 1 5 -13 5 -14 0 -19 -2 -12 -5z"/>
</g>
</svg>
