<svg width="250" height="250" viewBox="0 0 250 250" fill="none" xmlns="http://www.w3.org/2000/svg">
<circle cx="131.5" cy="61.5" r="2.4" fill="#00B909" stroke="black" stroke-width="0.2"/>
<circle cx="201.5" cy="47.5" r="2.4" fill="#00B909" stroke="black" stroke-width="0.2"/>
<circle cx="194.5" cy="54.5" r="2.4" fill="#00B909" stroke="black" stroke-width="0.2"/>
<circle cx="187.5" cy="61.5" r="2.4" fill="#00B909" stroke="black" stroke-width="0.2"/>
<circle cx="131.5" cy="68.5" r="2.4" fill="#00B909" stroke="black" stroke-width="0.2"/>
<circle cx="131.5" cy="75.5" r="2.4" fill="#C60606" stroke="black" stroke-width="0.2"/>
<circle cx="131.5" cy="82.5" r="2.4" fill="#C60606" stroke="black" stroke-width="0.2"/>
<circle cx="131.5" cy="89.5" r="2.4" fill="#EEEEEE" stroke="black" stroke-width="0.2"/>
<circle cx="145.5" cy="89.5" r="2.4" fill="#C60606" stroke="black" stroke-width="0.2"/>
<circle cx="152.5" cy="89.5" r="2.4" fill="#00B909" stroke="black" stroke-width="0.2"/>
<circle cx="166.5" cy="75.5" r="2.4" fill="#C60606" stroke="black" stroke-width="0.2"/>
<circle cx="173.5" cy="68.5" r="2.4" fill="#00B909" stroke="black" stroke-width="0.2"/>
<circle cx="180.5" cy="68.5" r="2.4" fill="#C60606" stroke="black" stroke-width="0.2"/>
<circle cx="173.5" cy="75.5" r="2.4" fill="#00B909" stroke="black" stroke-width="0.2"/>
<circle cx="180.5" cy="75.5" r="2.4" fill="#EEEEEE" stroke="black" stroke-width="0.2"/>
<circle cx="159.5" cy="82.5" r="2.4" fill="#EEEEEE" stroke="black" stroke-width="0.2"/>
<circle cx="166.5" cy="82.5" r="2.4" fill="#EEEEEE" stroke="black" stroke-width="0.2"/>
<circle cx="159.5" cy="89.5" r="2.4" fill="#C60606" stroke="black" stroke-width="0.2"/>
<circle cx="166.5" cy="89.5" r="2.4" fill="#C60606" stroke="black" stroke-width="0.2"/>
<circle cx="173.5" cy="82.5" r="2.4" fill="#C60606" stroke="black" stroke-width="0.2"/>
<circle cx="131.5" cy="96.5" r="2.4" fill="#00B909" stroke="black" stroke-width="0.2"/>
<circle cx="138.5" cy="96.5" r="2.4" fill="#C60606" stroke="black" stroke-width="0.2"/>
<circle cx="131.5" cy="103.5" r="2.4" fill="#EEEEEE" stroke="black" stroke-width="0.2"/>
<circle cx="138.5" cy="103.5" r="2.4" fill="#00B909" stroke="black" stroke-width="0.2"/>
<circle cx="145.5" cy="96.5" r="2.4" fill="#C60606" stroke="black" stroke-width="0.2"/>
<circle cx="152.5" cy="96.5" r="2.4" fill="#C60606" stroke="black" stroke-width="0.2"/>
<circle cx="145.5" cy="103.5" r="2.4" fill="#C60606" stroke="black" stroke-width="0.2"/>
<circle cx="152.5" cy="103.5" r="2.4" fill="#C60606" stroke="black" stroke-width="0.2"/>
<circle cx="131.5" cy="110.5" r="2.4" fill="#00B909" stroke="black" stroke-width="0.2"/>
<circle cx="138.5" cy="110.5" r="2.4" fill="#C60606" stroke="black" stroke-width="0.2"/>
<circle cx="131.5" cy="117.5" r="2.4" fill="#00B909" stroke="black" stroke-width="0.2"/>
<circle cx="138.5" cy="117.5" r="2.4" fill="#C60606" stroke="black" stroke-width="0.2"/>
<circle cx="145.5" cy="110.5" r="2.4" fill="#C60606" stroke="black" stroke-width="0.2"/>
<circle cx="152.5" cy="110.5" r="2.4" fill="#EEEEEE" stroke="black" stroke-width="0.2"/>
<circle cx="145.5" cy="117.5" r="2.4" fill="#C60606" stroke="black" stroke-width="0.2"/>
<circle cx="152.5" cy="117.5" r="2.4" fill="#00B909" stroke="black" stroke-width="0.2"/>
<circle cx="159.5" cy="96.5" r="2.4" fill="#C60606" stroke="black" stroke-width="0.2"/>
<circle cx="166.5" cy="96.5" r="2.4" fill="#00B909" stroke="black" stroke-width="0.2"/>
<circle cx="159.5" cy="103.5" r="2.4" fill="#C60606" stroke="black" stroke-width="0.2"/>
<circle cx="159.5" cy="117.5" r="2.4" fill="#C60606" stroke="black" stroke-width="0.2"/>
<circle cx="166.5" cy="117.5" r="2.4" fill="#C60606" stroke="black" stroke-width="0.2"/>
<circle cx="173.5" cy="117.5" r="2.4" fill="#C60606" stroke="black" stroke-width="0.2"/>
<circle cx="180.5" cy="117.5" r="2.4" fill="#C60606" stroke="black" stroke-width="0.2"/>
<circle cx="187.5" cy="68.5" r="2.4" fill="#C60606" stroke="black" stroke-width="0.2"/>
<circle cx="187.5" cy="117.5" r="2.4" fill="#C60606" stroke="black" stroke-width="0.2"/>
<circle cx="47.5" cy="47.5" r="2.4" fill="#C60606" stroke="black" stroke-width="0.2"/>
<circle cx="54.5" cy="54.5" r="2.4" fill="#C60606" stroke="black" stroke-width="0.2"/>
<circle cx="61.5" cy="61.5" r="2.4" fill="#C60606" stroke="black" stroke-width="0.2"/>
<circle cx="68.5" cy="61.5" r="2.4" fill="#C60606" stroke="black" stroke-width="0.2"/>
<circle cx="124.5" cy="19.5" r="2.4" fill="#C60606" stroke="black" stroke-width="0.2"/>
<circle cx="124.5" cy="26.5" r="2.4" fill="#C60606" stroke="black" stroke-width="0.2"/>
<circle cx="124.5" cy="33.5" r="2.4" fill="#C60606" stroke="black" stroke-width="0.2"/>
<circle cx="124.5" cy="40.5" r="2.4" fill="#C60606" stroke="black" stroke-width="0.2"/>
<circle cx="124.5" cy="47.5" r="2.4" fill="#C60606" stroke="black" stroke-width="0.2"/>
<circle cx="124.5" cy="54.5" r="2.4" fill="#C60606" stroke="black" stroke-width="0.2"/>
<circle cx="124.5" cy="61.5" r="2.4" fill="#C60606" stroke="black" stroke-width="0.2"/>
<circle cx="61.5" cy="68.5" r="2.4" fill="#C60606" stroke="black" stroke-width="0.2"/>
<circle cx="68.5" cy="68.5" r="2.4" fill="#C60606" stroke="black" stroke-width="0.2"/>
<circle cx="68.5" cy="75.5" r="2.4" fill="#C60606" stroke="black" stroke-width="0.2"/>
<circle cx="61.5" cy="117.5" r="2.4" fill="#C60606" stroke="black" stroke-width="0.2"/>
<circle cx="68.5" cy="117.5" r="2.4" fill="#C60606" stroke="black" stroke-width="0.2"/>
<circle cx="75.5" cy="68.5" r="2.4" fill="#C60606" stroke="black" stroke-width="0.2"/>
<circle cx="75.5" cy="75.5" r="2.4" fill="#C60606" stroke="black" stroke-width="0.2"/>
<circle cx="82.5" cy="75.5" r="2.4" fill="#C60606" stroke="black" stroke-width="0.2"/>
<circle cx="75.5" cy="82.5" r="2.4" fill="#00B909" stroke="black" stroke-width="0.2"/>
<circle cx="82.5" cy="82.5" r="2.4" fill="#C60606" stroke="black" stroke-width="0.2"/>
<circle cx="82.5" cy="89.5" r="2.4" fill="#00B909" stroke="black" stroke-width="0.2"/>
<circle cx="89.5" cy="82.5" r="2.4" fill="#C60606" stroke="black" stroke-width="0.2"/>
<circle cx="89.5" cy="89.5" r="2.4" fill="#C60606" stroke="black" stroke-width="0.2"/>
<circle cx="96.5" cy="89.5" r="2.4" fill="#00B909" stroke="black" stroke-width="0.2"/>
<circle cx="117.5" cy="68.5" r="2.4" fill="#C60606" stroke="black" stroke-width="0.2"/>
<circle cx="124.5" cy="68.5" r="2.4" fill="#C60606" stroke="black" stroke-width="0.2"/>
<circle cx="117.5" cy="75.5" r="2.4" fill="#00B909" stroke="black" stroke-width="0.2"/>
<circle cx="124.5" cy="75.5" r="2.4" fill="#C60606" stroke="black" stroke-width="0.2"/>
<circle cx="103.5" cy="89.5" r="2.4" fill="#C60606" stroke="black" stroke-width="0.2"/>
<circle cx="117.5" cy="82.5" r="2.4" fill="#C60606" stroke="black" stroke-width="0.2"/>
<circle cx="124.5" cy="82.5" r="2.4" fill="#00B909" stroke="black" stroke-width="0.2"/>
<circle cx="117.5" cy="89.5" r="2.4" fill="#00B909" stroke="black" stroke-width="0.2"/>
<circle cx="124.5" cy="89.5" r="2.4" fill="#00B909" stroke="black" stroke-width="0.2"/>
<circle cx="89.5" cy="96.5" r="2.4" fill="#C60606" stroke="black" stroke-width="0.2"/>
<circle cx="96.5" cy="96.5" r="2.4" fill="#00B909" stroke="black" stroke-width="0.2"/>
<circle cx="89.5" cy="103.5" r="2.4" fill="#C60606" stroke="black" stroke-width="0.2"/>
<circle cx="96.5" cy="103.5" r="2.4" fill="#00B909" stroke="black" stroke-width="0.2"/>
<circle cx="75.5" cy="117.5" r="2.4" fill="#C60606" stroke="black" stroke-width="0.2"/>
<circle cx="82.5" cy="117.5" r="2.4" fill="#C60606" stroke="black" stroke-width="0.2"/>
<circle cx="96.5" cy="110.5" r="2.4" fill="#00B909" stroke="black" stroke-width="0.2"/>
<circle cx="89.5" cy="117.5" r="2.4" fill="#C60606" stroke="black" stroke-width="0.2"/>
<circle cx="96.5" cy="117.5" r="2.4" fill="#C60606" stroke="black" stroke-width="0.2"/>
<circle cx="103.5" cy="96.5" r="2.4" fill="#00B909" stroke="black" stroke-width="0.2"/>
<circle cx="110.5" cy="96.5" r="2.4" fill="#00B909" stroke="black" stroke-width="0.2"/>
<circle cx="103.5" cy="103.5" r="2.4" fill="#00B909" stroke="black" stroke-width="0.2"/>
<circle cx="110.5" cy="103.5" r="2.4" fill="#00B909" stroke="black" stroke-width="0.2"/>
<circle cx="117.5" cy="96.5" r="2.4" fill="#00B909" stroke="black" stroke-width="0.2"/>
<circle cx="124.5" cy="96.5" r="2.4" fill="#C60606" stroke="black" stroke-width="0.2"/>
<circle cx="117.5" cy="103.5" r="2.4" fill="#00B909" stroke="black" stroke-width="0.2"/>
<circle cx="124.5" cy="103.5" r="2.4" fill="#00B909" stroke="black" stroke-width="0.2"/>
<circle cx="103.5" cy="110.5" r="2.4" fill="#00B909" stroke="black" stroke-width="0.2"/>
<circle cx="110.5" cy="110.5" r="2.4" fill="#00B909" stroke="black" stroke-width="0.2"/>
<circle cx="103.5" cy="117.5" r="2.4" fill="#00B909" stroke="black" stroke-width="0.2"/>
<circle cx="110.5" cy="117.5" r="2.4" fill="#00B909" stroke="black" stroke-width="0.2"/>
<circle cx="117.5" cy="110.5" r="2.4" fill="#00B909" stroke="black" stroke-width="0.2"/>
<circle cx="124.5" cy="110.5" r="2.4" fill="#00B909" stroke="black" stroke-width="0.2"/>
<circle cx="117.5" cy="117.5" r="2.4" fill="#00B909" stroke="black" stroke-width="0.2"/>
<circle cx="124.5" cy="117.5" r="2.4" fill="#00B909" stroke="black" stroke-width="0.2"/>
<circle cx="131.5" cy="124.5" r="2.4" fill="#C60606" stroke="black" stroke-width="0.2"/>
<circle cx="138.5" cy="124.5" r="2.4" fill="#C60606" stroke="black" stroke-width="0.2"/>
<circle cx="131.5" cy="131.5" r="2.4" fill="#C60606" stroke="black" stroke-width="0.2"/>
<circle cx="138.5" cy="131.5" r="2.4" fill="#C60606" stroke="black" stroke-width="0.2"/>
<circle cx="145.5" cy="124.5" r="2.4" fill="#C60606" stroke="black" stroke-width="0.2"/>
<circle cx="152.5" cy="124.5" r="2.4" fill="#C60606" stroke="black" stroke-width="0.2"/>
<circle cx="145.5" cy="131.5" r="2.4" fill="#C60606" stroke="black" stroke-width="0.2"/>
<circle cx="152.5" cy="131.5" r="2.4" fill="#EEEEEE" stroke="black" stroke-width="0.2"/>
<circle cx="131.5" cy="138.5" r="2.4" fill="#EEEEEE" stroke="black" stroke-width="0.2"/>
<circle cx="138.5" cy="138.5" r="2.4" fill="#C60606" stroke="black" stroke-width="0.2"/>
<circle cx="131.5" cy="145.5" r="2.4" fill="#C60606" stroke="black" stroke-width="0.2"/>
<circle cx="138.5" cy="145.5" r="2.4" fill="#C60606" stroke="black" stroke-width="0.2"/>
<circle cx="145.5" cy="138.5" r="2.4" fill="#C60606" stroke="black" stroke-width="0.2"/>
<circle cx="152.5" cy="138.5" r="2.4" fill="#C60606" stroke="black" stroke-width="0.2"/>
<circle cx="145.5" cy="145.5" r="2.4" fill="#C60606" stroke="black" stroke-width="0.2"/>
<circle cx="152.5" cy="145.5" r="2.4" fill="#C60606" stroke="black" stroke-width="0.2"/>
<circle cx="159.5" cy="124.5" r="2.4" fill="#00B909" stroke="black" stroke-width="0.2"/>
<circle cx="166.5" cy="124.5" r="2.4" fill="#00B909" stroke="black" stroke-width="0.2"/>
<circle cx="159.5" cy="131.5" r="2.4" fill="#C60606" stroke="black" stroke-width="0.2"/>
<circle cx="166.5" cy="131.5" r="2.4" fill="#C60606" stroke="black" stroke-width="0.2"/>
<circle cx="173.5" cy="124.5" r="2.4" fill="#00B909" stroke="black" stroke-width="0.2"/>
<circle cx="180.5" cy="124.5" r="2.4" fill="#C60606" stroke="black" stroke-width="0.2"/>
<circle cx="173.5" cy="131.5" r="2.4" fill="#00B909" stroke="black" stroke-width="0.2"/>
<circle cx="180.5" cy="131.5" r="2.4" fill="#00B909" stroke="black" stroke-width="0.2"/>
<circle cx="159.5" cy="145.5" r="2.4" fill="#00B909" stroke="black" stroke-width="0.2"/>
<circle cx="131.5" cy="152.5" r="2.4" fill="#00B909" stroke="black" stroke-width="0.2"/>
<circle cx="138.5" cy="152.5" r="2.4" fill="#C60606" stroke="black" stroke-width="0.2"/>
<circle cx="131.5" cy="159.5" r="2.4" fill="#C60606" stroke="black" stroke-width="0.2"/>
<circle cx="145.5" cy="152.5" r="2.4" fill="#C60606" stroke="black" stroke-width="0.2"/>
<circle cx="152.5" cy="152.5" r="2.4" fill="#00B909" stroke="black" stroke-width="0.2"/>
<circle cx="145.5" cy="159.5" r="2.4" fill="#C60606" stroke="black" stroke-width="0.2"/>
<circle cx="152.5" cy="159.5" r="2.4" fill="#00B909" stroke="black" stroke-width="0.2"/>
<circle cx="131.5" cy="166.5" r="2.4" fill="#EEEEEE" stroke="black" stroke-width="0.2"/>
<circle cx="131.5" cy="173.5" r="2.4" fill="#EEEEEE" stroke="black" stroke-width="0.2"/>
<circle cx="159.5" cy="152.5" r="2.4" fill="#00B909" stroke="black" stroke-width="0.2"/>
<circle cx="166.5" cy="152.5" r="2.4" fill="#C60606" stroke="black" stroke-width="0.2"/>
<circle cx="159.5" cy="159.5" r="2.4" fill="#C60606" stroke="black" stroke-width="0.2"/>
<circle cx="166.5" cy="159.5" r="2.4" fill="#C60606" stroke="black" stroke-width="0.2"/>
<circle cx="159.5" cy="166.5" r="2.4" fill="#C60606" stroke="black" stroke-width="0.2"/>
<circle cx="166.5" cy="166.5" r="2.4" fill="#C60606" stroke="black" stroke-width="0.2"/>
<circle cx="166.5" cy="173.5" r="2.4" fill="#C60606" stroke="black" stroke-width="0.2"/>
<circle cx="173.5" cy="166.5" r="2.4" fill="#C60606" stroke="black" stroke-width="0.2"/>
<circle cx="173.5" cy="173.5" r="2.4" fill="#C60606" stroke="black" stroke-width="0.2"/>
<circle cx="180.5" cy="173.5" r="2.4" fill="#C60606" stroke="black" stroke-width="0.2"/>
<circle cx="187.5" cy="124.5" r="2.4" fill="#00B909" stroke="black" stroke-width="0.2"/>
<circle cx="194.5" cy="124.5" r="2.4" fill="#C60606" stroke="black" stroke-width="0.2"/>
<circle cx="187.5" cy="131.5" r="2.4" fill="#C60606" stroke="black" stroke-width="0.2"/>
<circle cx="194.5" cy="131.5" r="2.4" fill="#C60606" stroke="black" stroke-width="0.2"/>
<circle cx="201.5" cy="124.5" r="2.4" fill="#00B909" stroke="black" stroke-width="0.2"/>
<circle cx="208.5" cy="124.5" r="2.4" fill="#C60606" stroke="black" stroke-width="0.2"/>
<circle cx="215.5" cy="124.5" r="2.4" fill="#C60606" stroke="black" stroke-width="0.2"/>
<circle cx="222.5" cy="124.5" r="2.4" fill="#00B909" stroke="black" stroke-width="0.2"/>
<circle cx="229.5" cy="124.5" r="2.4" fill="#C60606" stroke="black" stroke-width="0.2"/>
<circle cx="131.5" cy="180.5" r="2.4" fill="#00B909" stroke="black" stroke-width="0.2"/>
<circle cx="131.5" cy="187.5" r="2.4" fill="#C60606" stroke="black" stroke-width="0.2"/>
<circle cx="131.5" cy="194.5" r="2.4" fill="#C60606" stroke="black" stroke-width="0.2"/>
<circle cx="173.5" cy="180.5" r="2.4" fill="#EEEEEE" stroke="black" stroke-width="0.2"/>
<circle cx="180.5" cy="180.5" r="2.4" fill="#C60606" stroke="black" stroke-width="0.2"/>
<circle cx="180.5" cy="187.5" r="2.4" fill="#EEEEEE" stroke="black" stroke-width="0.2"/>
<circle cx="187.5" cy="180.5" r="2.4" fill="#C60606" stroke="black" stroke-width="0.2"/>
<circle cx="187.5" cy="187.5" r="2.4" fill="#C60606" stroke="black" stroke-width="0.2"/>
<circle cx="194.5" cy="194.5" r="2.4" fill="#C60606" stroke="black" stroke-width="0.2"/>
<circle cx="201.5" cy="201.5" r="2.4" fill="#C60606" stroke="black" stroke-width="0.2"/>
<circle cx="19.5" cy="124.5" r="2.4" fill="#00B909" stroke="black" stroke-width="0.2"/>
<circle cx="26.5" cy="124.5" r="2.4" fill="#C60606" stroke="black" stroke-width="0.2"/>
<circle cx="33.5" cy="124.5" r="2.4" fill="#00B909" stroke="black" stroke-width="0.2"/>
<circle cx="40.5" cy="124.5" r="2.4" fill="#00B909" stroke="black" stroke-width="0.2"/>
<circle cx="47.5" cy="124.5" r="2.4" fill="#00B909" stroke="black" stroke-width="0.2"/>
<circle cx="54.5" cy="124.5" r="2.4" fill="#00B909" stroke="black" stroke-width="0.2"/>
<circle cx="54.5" cy="131.5" r="2.4" fill="#00B909" stroke="black" stroke-width="0.2"/>
<circle cx="61.5" cy="124.5" r="2.4" fill="#00B909" stroke="black" stroke-width="0.2"/>
<circle cx="68.5" cy="124.5" r="2.4" fill="#00B909" stroke="black" stroke-width="0.2"/>
<circle cx="61.5" cy="131.5" r="2.4" fill="#C60606" stroke="black" stroke-width="0.2"/>
<circle cx="68.5" cy="131.5" r="2.4" fill="#EEEEEE" stroke="black" stroke-width="0.2"/>
<circle cx="68.5" cy="173.5" r="2.4" fill="#00B909" stroke="black" stroke-width="0.2"/>
<circle cx="75.5" cy="124.5" r="2.4" fill="#00B909" stroke="black" stroke-width="0.2"/>
<circle cx="82.5" cy="124.5" r="2.4" fill="#00B909" stroke="black" stroke-width="0.2"/>
<circle cx="75.5" cy="131.5" r="2.4" fill="#00B909" stroke="black" stroke-width="0.2"/>
<circle cx="82.5" cy="131.5" r="2.4" fill="#00B909" stroke="black" stroke-width="0.2"/>
<circle cx="89.5" cy="124.5" r="2.4" fill="#00B909" stroke="black" stroke-width="0.2"/>
<circle cx="96.5" cy="124.5" r="2.4" fill="#00B909" stroke="black" stroke-width="0.2"/>
<circle cx="89.5" cy="131.5" r="2.4" fill="#00B909" stroke="black" stroke-width="0.2"/>
<circle cx="96.5" cy="131.5" r="2.4" fill="#00B909" stroke="black" stroke-width="0.2"/>
<circle cx="96.5" cy="138.5" r="2.4" fill="#00B909" stroke="black" stroke-width="0.2"/>
<circle cx="89.5" cy="145.5" r="2.4" fill="#C60606" stroke="black" stroke-width="0.2"/>
<circle cx="96.5" cy="145.5" r="2.4" fill="#C60606" stroke="black" stroke-width="0.2"/>
<circle cx="103.5" cy="124.5" r="2.4" fill="#EEEEEE" stroke="black" stroke-width="0.2"/>
<circle cx="110.5" cy="124.5" r="2.4" fill="#EEEEEE" stroke="black" stroke-width="0.2"/>
<circle cx="103.5" cy="131.5" r="2.4" fill="#C60606" stroke="black" stroke-width="0.2"/>
<circle cx="110.5" cy="131.5" r="2.4" fill="#C60606" stroke="black" stroke-width="0.2"/>
<circle cx="117.5" cy="124.5" r="2.4" fill="#C60606" stroke="black" stroke-width="0.2"/>
<circle cx="124.5" cy="124.5" r="2.4" fill="#00B909" stroke="black" stroke-width="0.2"/>
<circle cx="117.5" cy="131.5" r="2.4" fill="#00B909" stroke="black" stroke-width="0.2"/>
<circle cx="124.5" cy="131.5" r="2.4" fill="#C60606" stroke="black" stroke-width="0.2"/>
<circle cx="103.5" cy="138.5" r="2.4" fill="#00B909" stroke="black" stroke-width="0.2"/>
<circle cx="110.5" cy="138.5" r="2.4" fill="#C60606" stroke="black" stroke-width="0.2"/>
<circle cx="103.5" cy="145.5" r="2.4" fill="#C60606" stroke="black" stroke-width="0.2"/>
<circle cx="110.5" cy="145.5" r="2.4" fill="#C60606" stroke="black" stroke-width="0.2"/>
<circle cx="117.5" cy="138.5" r="2.4" fill="#C60606" stroke="black" stroke-width="0.2"/>
<circle cx="124.5" cy="138.5" r="2.4" fill="#C60606" stroke="black" stroke-width="0.2"/>
<circle cx="117.5" cy="145.5" r="2.4" fill="#C60606" stroke="black" stroke-width="0.2"/>
<circle cx="124.5" cy="145.5" r="2.4" fill="#EEEEEE" stroke="black" stroke-width="0.2"/>
<circle cx="82.5" cy="159.5" r="2.4" fill="#C60606" stroke="black" stroke-width="0.2"/>
<circle cx="89.5" cy="152.5" r="2.4" fill="#C60606" stroke="black" stroke-width="0.2"/>
<circle cx="96.5" cy="152.5" r="2.4" fill="#C60606" stroke="black" stroke-width="0.2"/>
<circle cx="89.5" cy="159.5" r="2.4" fill="#00B909" stroke="black" stroke-width="0.2"/>
<circle cx="96.5" cy="159.5" r="2.4" fill="#00B909" stroke="black" stroke-width="0.2"/>
<circle cx="75.5" cy="166.5" r="2.4" fill="#C60606" stroke="black" stroke-width="0.2"/>
<circle cx="82.5" cy="166.5" r="2.4" fill="#00B909" stroke="black" stroke-width="0.2"/>
<circle cx="75.5" cy="173.5" r="2.4" fill="#00B909" stroke="black" stroke-width="0.2"/>
<circle cx="82.5" cy="173.5" r="2.4" fill="#00B909" stroke="black" stroke-width="0.2"/>
<circle cx="89.5" cy="166.5" r="2.4" fill="#00B909" stroke="black" stroke-width="0.2"/>
<circle cx="96.5" cy="166.5" r="2.4" fill="#00B909" stroke="black" stroke-width="0.2"/>
<circle cx="103.5" cy="152.5" r="2.4" fill="#C60606" stroke="black" stroke-width="0.2"/>
<circle cx="110.5" cy="152.5" r="2.4" fill="#C60606" stroke="black" stroke-width="0.2"/>
<circle cx="103.5" cy="159.5" r="2.4" fill="#EEEEEE" stroke="black" stroke-width="0.2"/>
<circle cx="117.5" cy="152.5" r="2.4" fill="#EEEEEE" stroke="black" stroke-width="0.2"/>
<circle cx="124.5" cy="152.5" r="2.4" fill="#EEEEEE" stroke="black" stroke-width="0.2"/>
<circle cx="117.5" cy="159.5" r="2.4" fill="#C60606" stroke="black" stroke-width="0.2"/>
<circle cx="124.5" cy="159.5" r="2.4" fill="#C60606" stroke="black" stroke-width="0.2"/>
<circle cx="117.5" cy="166.5" r="2.4" fill="#C60606" stroke="black" stroke-width="0.2"/>
<circle cx="124.5" cy="166.5" r="2.4" fill="#C60606" stroke="black" stroke-width="0.2"/>
<circle cx="117.5" cy="173.5" r="2.4" fill="#C60606" stroke="black" stroke-width="0.2"/>
<circle cx="124.5" cy="173.5" r="2.4" fill="#00B909" stroke="black" stroke-width="0.2"/>
<circle cx="68.5" cy="180.5" r="2.4" fill="#00B909" stroke="black" stroke-width="0.2"/>
<circle cx="61.5" cy="187.5" r="2.4" fill="#00B909" stroke="black" stroke-width="0.2"/>
<circle cx="68.5" cy="187.5" r="2.4" fill="#00B909" stroke="black" stroke-width="0.2"/>
<circle cx="54.5" cy="194.5" r="2.4" fill="#00B909" stroke="black" stroke-width="0.2"/>
<circle cx="47.5" cy="201.5" r="2.4" fill="#00B909" stroke="black" stroke-width="0.2"/>
<circle cx="75.5" cy="180.5" r="2.4" fill="#00B909" stroke="black" stroke-width="0.2"/>
<circle cx="117.5" cy="180.5" r="2.4" fill="#00B909" stroke="black" stroke-width="0.2"/>
<circle cx="124.5" cy="180.5" r="2.4" fill="#00B909" stroke="black" stroke-width="0.2"/>
<circle cx="117.5" cy="187.5" r="2.4" fill="#00B909" stroke="black" stroke-width="0.2"/>
<circle cx="124.5" cy="187.5" r="2.4" fill="#00B909" stroke="black" stroke-width="0.2"/>
<circle cx="124.5" cy="194.5" r="2.4" fill="#00B909" stroke="black" stroke-width="0.2"/>
<circle cx="124.5" cy="201.5" r="2.4" fill="#00B909" stroke="black" stroke-width="0.2"/>
<circle cx="124.5" cy="208.5" r="2.4" fill="#00B909" stroke="black" stroke-width="0.2"/>
<circle cx="124.5" cy="215.5" r="2.4" fill="#00B909" stroke="black" stroke-width="0.2"/>
<circle cx="124.5" cy="222.5" r="2.4" fill="#00B909" stroke="black" stroke-width="0.2"/>
<circle cx="124.5" cy="229.5" r="2.4" fill="#00B909" stroke="black" stroke-width="0.2"/>
<rect x="0.1" y="0.1" width="249.8" height="249.8" stroke="black" stroke-width="0.2" stroke-dasharray="2 2"/>
</svg>
